<?xml version="1.0" standalone="no"?>
<!DOCTYPE svg PUBLIC "-//W3C//DTD SVG 20010904//EN"
 "http://www.w3.org/TR/2001/REC-SVG-20010904/DTD/svg10.dtd">
<svg version="1.0" xmlns="http://www.w3.org/2000/svg"
 width="465.000000pt" height="537.000000pt" viewBox="0 0 465.000000 537.000000"
 preserveAspectRatio="xMidYMid meet">
<metadata>
Created by Kolyasique
</metadata>
<g transform="translate(0.000000,537.000000) scale(0.100000,-0.100000)"
fill="#ff0f53" stroke="none">
<path d="M2083 5218 c-17 -6 -44 -24 -60 -40 l-28 -30 2 -161 c0 -89 11 -304
22 -477 11 -173 23 -355 26 -405 5 -82 15 -251 60 -960 9 -137 24 -347 34
-465 10 -118 16 -217 14 -220 -10 -12 -143 70 -191 117 -67 67 -92 124 -132
298 -18 77 -70 295 -117 485 -218 892 -227 923 -299 1041 -57 94 -174 188
-196 157 -8 -10 -9 -9 -4 4 5 17 -2 21 -96 43 -37 9 -124 -11 -160 -37 -37
-26 -67 -90 -68 -141 0 -20 9 -70 19 -110 11 -39 74 -274 140 -522 66 -247
131 -493 145 -545 15 -52 51 -192 82 -310 30 -118 83 -316 116 -440 33 -124
84 -321 113 -438 29 -118 55 -215 57 -217 2 -1 59 -12 128 -25 341 -61 607
-153 790 -275 135 -90 270 -268 322 -425 29 -90 36 -272 14 -361 -61 -244
-267 -436 -524 -488 -74 -15 -247 -14 -334 3 -142 28 -329 110 -448 198 l-55
41 34 -36 c68 -72 277 -200 416 -254 196 -76 340 -105 530 -106 297 -1 588 90
830 259 133 93 298 274 391 429 46 77 119 250 148 350 51 180 60 266 57 565
-2 307 7 409 49 550 44 149 83 240 195 450 246 465 293 579 281 687 -18 160
-119 270 -230 249 -59 -11 -78 -37 -301 -401 -56 -91 -304 -484 -386 -612 -19
-29 -39 -53 -45 -53 -14 0 -51 51 -80 113 -32 70 -31 149 5 307 42 186 111
417 319 1072 59 185 77 282 69 381 -10 137 -79 258 -182 322 -41 25 -59 30
-113 30 -100 0 -95 9 -222 -430 -29 -99 -72 -247 -97 -330 -24 -82 -58 -197
-74 -255 -17 -58 -39 -132 -49 -165 -11 -33 -58 -195 -105 -359 -47 -165 -88
-302 -90 -304 -8 -8 -72 46 -108 90 -52 65 -76 120 -87 200 -5 40 -14 300 -20
578 -18 830 -37 1026 -116 1182 -33 65 -115 147 -178 177 -55 27 -162 37 -213
19z m-712 -771 c65 -87 133 -246 142 -329 2 -18 7 -39 11 -46 12 -19 16 -73 6
-67 -6 4 -10 12 -10 19 0 8 -9 16 -19 19 -12 3 -22 18 -26 38 -8 35 -33 61
-49 52 -5 -4 -6 -1 -3 5 4 5 17 8 30 6 12 -2 16 -1 8 2 -11 5 -11 8 0 16 11 8
11 9 -2 5 -24 -8 -39 12 -39 50 0 26 -4 33 -19 33 -15 0 -21 12 -30 60 -7 33
-20 68 -30 78 -10 9 -21 35 -24 56 -4 23 -18 52 -34 69 l-28 30 46 -32 c26
-18 57 -47 70 -64z m1164 -2134 c50 -20 138 -60 197 -90 393 -200 663 -549
719 -933 17 -116 6 -322 -21 -420 -23 -80 -60 -173 -67 -166 -2 2 3 21 11 41
19 44 19 45 7 45 -5 0 -13 -9 -16 -20 -4 -11 -10 -18 -15 -15 -5 3 -7 12 -3
20 3 8 0 15 -6 15 -6 0 -11 9 -11 20 0 11 -7 20 -15 20 -22 0 -19 40 3 41 13
0 11 3 -6 10 -13 5 -21 13 -18 17 3 5 -4 21 -15 38 -10 16 -19 39 -19 52 0 13
-6 22 -15 22 -8 0 -15 6 -15 14 0 8 -10 23 -22 33 -13 10 -29 32 -37 48 -8 17
-30 44 -48 62 -18 18 -33 41 -33 52 0 12 -7 21 -15 21 -8 0 -15 7 -15 15 0 8
-4 15 -8 15 -11 0 -62 78 -62 95 0 7 -7 18 -15 25 -8 7 -15 21 -15 31 0 11 -4
19 -10 19 -5 0 -10 7 -10 16 0 9 -6 14 -12 11 -14 -4 -51 53 -61 95 -12 46
-68 157 -94 186 -7 7 -14 20 -14 28 -3 33 -41 112 -46 97 -2 -6 3 -24 13 -40
l17 -28 -26 30 c-14 17 -30 41 -36 55 -38 99 -47 120 -53 120 -5 0 -8 15 -8
33 0 18 -7 42 -15 53 -8 10 -15 25 -15 33 0 17 -50 77 -50 59 0 -7 -11 0 -25
16 -14 16 -25 37 -25 46 0 10 -7 21 -16 24 -9 4 -14 13 -10 21 3 10 -1 15 -11
15 -9 0 -13 3 -10 7 4 3 -5 15 -20 26 -28 18 -28 18 -3 12 14 -4 66 -23 115
-42z"/>
</g>
</svg>
